#N canvas 1305 19 1245 1344 12;
#X floatatom 27 666 5 0 0 0 - - - 0;
#X floatatom 83 666 5 0 0 0 - - - 0;
#X floatatom 35 390 6 0 0 0 - - - 0;
#X obj 190 163 tgl 35 0 empty empty empty 0 -6 0 8 #14e814 #000000
#000000 0 25;
#X floatatom 647 348 12 0 0 1 value - - 0;
#X symbolatom 607 364 15 0 0 1 event_code - - 0;
#X symbolatom 568 380 15 0 0 1 event_type - - 0;
#X text 394 330 outlet message format:;
#X floatatom 138 343 5 0 0 1 ev_syn - - 0;
#X obj 111 342 +;
#X msg 111 322 1;
#X msg 374 140 close;
#X msg 374 119 refresh;
#X obj 16 291 route key rel abs syn;
#X obj 6 759 tgl 25 0 empty empty empty 0 -6 0 8 #bcbcbc #000000 #000000
0 1;
#X floatatom 140 666 5 0 0 0 - - - 0;
#X obj 497 402 route abs_hat0x abs_hat0y abs_hat1x abs_hat1y;
#X floatatom 497 424 7 0 0 0 - - - 0;
#X msg 374 161 print;
#X text 9 212 Any non-zero value starts polling \,;
#X text 8 225 0 stops the polling. If the number;
#X text 9 238 is greater than 1 \, then the poll;
#X text 9 251 delay is set to that number.;
#X obj 27 646 route rel_x rel_y rel_z rel_wheel;
#X floatatom 196 666 5 0 0 0 - - - 0;
#X obj 568 329 unpack s s f;
#X text 363 348 event_type event_code value;
#X obj 35 369 route abs_x abs_y abs_z abs_rx abs_ry abs_rz abs_throttle
;
#X obj 428 441 tgl 15 0 empty empty empty 0 -6 0 8 #fcfcfc #000000
#000000 0 -1;
#X floatatom 574 424 7 0 0 0 - - - 0;
#X obj 574 440 tgl 15 0 empty empty empty 0 -6 0 8 #fcfcfc #000000
#000000 0 1;
#X floatatom 652 424 7 0 0 0 - - - 0;
#X obj 652 440 tgl 15 0 empty empty empty 0 -6 0 8 #fcfcfc #000000
#000000 0 1;
#X floatatom 729 424 7 0 0 0 - - - 0;
#X obj 729 440 tgl 15 0 empty empty empty 0 -6 0 8 #fcfcfc #000000
#000000 0 1;
#X floatatom 85 390 6 0 0 0 - - - 0;
#X floatatom 135 390 6 0 0 0 - - - 0;
#X floatatom 185 390 6 0 0 0 - - - 0;
#X floatatom 235 390 6 0 0 0 - - - 0;
#X floatatom 285 390 6 0 0 0 - - - 0;
#X floatatom 335 390 6 0 0 0 - - - 0;
#X obj 36 759 tgl 25 0 empty empty empty 0 -6 0 8 #bcbcbc #000000 #000000
0 1;
#X obj 66 759 tgl 25 0 empty empty empty 0 -6 0 8 #bcbcbc #000000 #000000
0 1;
#X obj 96 759 tgl 25 0 empty empty empty 0 -6 0 8 #bcbcbc #000000 #000000
0 1;
#X obj 126 759 tgl 25 0 empty empty empty 0 -6 0 8 #bcbcbc #000000
#000000 0 1;
#X obj 156 759 tgl 25 0 empty empty empty 0 -6 0 8 #bcbcbc #000000
#000000 0 1;
#X obj 186 759 tgl 25 0 empty empty empty 0 -6 0 8 #bcbcbc #000000
#000000 0 1;
#X obj 216 759 tgl 25 0 empty empty empty 0 -6 0 8 #bcbcbc #000000
#000000 0 1;
#X obj 246 759 tgl 25 0 empty empty empty 0 -6 0 8 #bcbcbc #000000
#000000 0 1;
#X obj 276 759 tgl 25 0 empty empty empty 0 -6 0 8 #bcbcbc #000000
#000000 0 1;
#X obj 306 759 tgl 25 0 empty empty empty 0 -6 0 8 #bcbcbc #000000
#000000 0 1;
#X obj 336 759 tgl 25 0 empty empty empty 0 -6 0 8 #bcbcbc #000000
#000000 0 1;
#X obj 366 759 tgl 25 0 empty empty empty 0 -6 0 8 #bcbcbc #000000
#000000 0 1;
#X obj 396 759 tgl 25 0 empty empty empty 0 -6 0 8 #bcbcbc #000000
#000000 0 1;
#X obj 9 687 route btn_0 btn_1 btn_2 btn_3 btn_4 btn_5 btn_6 btn_7
btn_8 btn_9 btn_10 btn_11 btn_12 btn_13 btn_14 btn_15;
#X obj 426 759 tgl 25 0 empty empty empty 0 -6 0 8 #bcbcbc #000000
#000000 0 1;
#X obj 456 759 tgl 25 0 empty empty empty 0 -6 0 8 #bcbcbc #000000
#000000 0 1;
#X msg 298 145 info;
#N canvas 553 77 380 450 open 0;
#X obj 77 61 hradio 15 1 0 8 empty empty empty 0 -6 0 8 #fcfcfc #000000
#000000 0;
#X msg 78 81 open mouse \$1;
#X obj 121 201 hradio 15 1 0 8 empty empty empty 0 -6 0 8 #fcfcfc #000000
#000000 0;
#X msg 130 221 open keyboard \$1;
#X obj 50 13 hradio 15 1 0 8 empty empty empty 0 -6 0 8 #fcfcfc #000000
#000000 0;
#X obj 55 417 outlet;
#X obj 85 108 hradio 15 1 0 8 empty empty empty 0 -6 0 8 #fcfcfc #000000
#000000 0;
#X msg 94 128 open joystick \$1;
#X msg 59 33 open pointer \$1;
#X obj 101 155 hradio 15 1 0 8 empty empty empty 0 -6 0 8 #fcfcfc #000000
#000000 0;
#X msg 110 175 open gamepad \$1;
#X obj 137 244 hradio 15 1 0 8 empty empty empty 0 -6 0 8 #fcfcfc #000000
#000000 0;
#X msg 146 264 open keypad \$1;
#X obj 141 291 hradio 15 1 0 8 empty empty empty 0 -6 0 8 #fcfcfc #000000
#000000 0;
#X msg 150 311 open multiaxiscontroller \$1;
#X text 155 342 or just open the first one:;
#X msg 138 363 open mouse;
#X msg 159 381 open joystick;
#X connect 0 0 1 0;
#X connect 1 0 5 0;
#X connect 2 0 3 0;
#X connect 3 0 5 0;
#X connect 4 0 8 0;
#X connect 6 0 7 0;
#X connect 7 0 5 0;
#X connect 8 0 5 0;
#X connect 9 0 10 0;
#X connect 10 0 5 0;
#X connect 11 0 12 0;
#X connect 12 0 5 0;
#X connect 13 0 14 0;
#X connect 14 0 5 0;
#X connect 16 0 5 0;
#X connect 17 0 5 0;
#X restore 203 59 pd open by device type;
#N canvas 796 51 470 320 open 0;
#X text 217 82 Gravis/Destroyer Tiltpad;
#X msg 76 81 open 0x047D 0x4008;
#X msg 73 53 open 0x046d 0xc01d;
#X text 211 53 Logitech USB-PS/2 Optical Mouse;
#X obj 10 277 outlet;
#X text 9 12 You can use the hex values of the USB vendor and product
IDs (it is not case sensitive):;
#X text 221 111 Overtone CUI v1.0;
#X msg 80 110 open 0x1043 0x0015;
#X msg 83 136 open 0x06a3 0xff12;
#X text 221 134 Saitek Cyborgforce;
#X connect 1 0 4 0;
#X connect 2 0 4 0;
#X connect 7 0 4 0;
#X connect 8 0 4 0;
#X restore 174 37 pd open by vendor/product ID;
#N canvas 114 93 467 346 test 0;
#X obj 144 45 inlet;
#X obj 88 104 route DESKTOP;
#X obj 87 158 route DESKTOP57;
#X obj 70 207 bng 15 250 50 0 empty empty empty 0 -6 0 8 #fcfcfc #000000
#000000;
#X floatatom 95 212 5 0 0 0 - - - 0;
#X obj 148 215 spigot;
#X obj 146 256 print test;
#X obj 189 192 tgl 15 0 empty empty empty 0 -6 0 8 #fcfcfc #000000
#000000 0 1;
#X obj 292 122 spigot;
#X obj 290 163 print test;
#X obj 333 99 tgl 15 0 empty empty empty 0 -6 0 8 #fcfcfc #000000 #000000
0 1;
#X connect 0 0 1 0;
#X connect 0 0 8 0;
#X connect 1 0 2 0;
#X connect 2 0 3 0;
#X connect 2 0 4 0;
#X connect 2 0 5 0;
#X connect 5 0 6 0;
#X connect 7 0 5 1;
#X connect 8 0 9 0;
#X connect 10 0 8 1;
#X restore 197 303 pd test;
#X obj 249 300 pddp/print;
#N canvas 162 133 570 420 serin 0;
#X obj 286 61 cnv 15 30 15 empty \$0-open-canvas 14 4 8 0 14 #e0e0e0
#000000 0;
#X obj 60 61 hradio 15 1 1 15 empty empty empty 0 -6 0 8 #d8fcd8 #000000
#000000 14;
#X obj 60 13 inlet;
#X msg 200 202 label \$1;
#X obj 200 180 makefilename %d;
#X obj 59 108 int;
#X obj 59 337 outlet;
#X msg 201 306 set \$1 \$2;
#X obj 59 266 trigger bang anything;
#X obj 201 286 list;
#X msg 60 210 open \$1;
#X obj 200 225 send \$0-open-canvas;
#X connect 1 0 5 0;
#X connect 2 0 1 0;
#X connect 3 0 11 0;
#X connect 4 0 3 0;
#X connect 5 0 4 0;
#X connect 5 0 10 0;
#X connect 7 0 6 0;
#X connect 8 0 6 0;
#X connect 8 1 9 0;
#X connect 9 0 7 0;
#X connect 10 0 8 0;
#X coords 0 -1 1 1 257 17 1 60 60;
#X restore 262 92 pd serin;
#X text 437 141 comment;
#X text 435 117 comment;
#X text 437 162 comment;
#X msg 1146 714 connect 127.0.0.1 57120;
#X obj 860 826 tgl 35 0 empty empty empty 17 7 0 10 #00ff04 #000000
#000000 0 1;
#X msg 1196 771 disconnect;
#X floatatom 570 596 5 0 0 0 - - - 0;
#X msg 569 623 send /abs_x \$1;
#X obj -31 465 send abs_x;
#X obj 569 573 receive abs_x;
#X obj 47 467 send abs_y;
#X obj 135 470 send abs_z;
#X obj 223 470 send abs_rx;
#X obj 311 469 send abs_ry;
#X obj 406 470 send abs_rz;
#X obj 500 470 send abs_throttle;
#X obj 680 574 receive abs_y;
#X obj 777 574 receive abs_z;
#X obj 875 570 receive abs_rx;
#X obj 984 569 receive abs_ry;
#X obj 1091 568 receive abs_rz;
#X obj 1203 567 receive abs_throttle;
#X floatatom 688 599 5 0 0 0 - - - 0;
#X floatatom 804 606 5 0 0 0 - - - 0;
#X floatatom 920 605 5 0 0 0 - - - 0;
#X floatatom 1030 604 5 0 0 0 - - - 0;
#X floatatom 1147 605 5 0 0 0 - - - 0;
#X floatatom 1265 602 5 0 0 0 - - - 0;
#X msg 687 626 send /abs_y \$1;
#X msg 803 633 send /abs_z \$1;
#X msg 919 632 send /abs_rx \$1;
#X msg 1030 630 send /abs_ry \$1;
#X msg 1146 632 send /abs_rz \$1;
#X msg 1281 633 send /abs_throttle \$1;
#X obj 1300 663 loadbang;
#N canvas 72 139 1751 749 extreme_buttons 0;
#X obj 32 69 inlet;
#X obj 175 70 inlet;
#X obj 309 69 inlet;
#X obj 478 92 inlet;
#X obj 638 91 inlet;
#X obj 801 85 inlet;
#X obj 974 81 inlet;
#X obj 1143 80 inlet;
#X obj 1307 81 inlet;
#X obj 1461 69 inlet;
#X obj 1612 77 inlet;
#X obj 1789 87 inlet;
#X obj 844 565 outlet;
#X msg 15 291 send /btn_0 \$1;
#X msg 176 283 send /btn_1 \$1;
#X msg 332 282 send /btn_2 \$1;
#X msg 647 287 send /btn_4 \$1;
#X msg 803 281 send /btn_5 \$1;
#X msg 959 286 send /btn_6 \$1;
#X msg 1118 282 send /btn_7 \$1;
#X msg 1289 278 send /btn_8 \$1;
#X msg 1450 289 send /btn_9 \$1;
#X msg 1604 290 send /btn_10 \$1;
#X msg 1771 297 send /btn_11 \$1;
#X msg 489 283 send /btn_3 \$1;
#X connect 0 0 13 0;
#X connect 1 0 14 0;
#X connect 2 0 15 0;
#X connect 3 0 24 0;
#X connect 4 0 16 0;
#X connect 5 0 17 0;
#X connect 6 0 18 0;
#X connect 7 0 19 0;
#X connect 8 0 20 0;
#X connect 9 0 21 0;
#X connect 10 0 22 0;
#X connect 11 0 23 0;
#X connect 13 0 12 0;
#X connect 14 0 12 0;
#X connect 15 0 12 0;
#X connect 16 0 12 0;
#X connect 17 0 12 0;
#X connect 18 0 12 0;
#X connect 19 0 12 0;
#X connect 20 0 12 0;
#X connect 21 0 12 0;
#X connect 22 0 12 0;
#X connect 23 0 12 0;
#X connect 24 0 12 0;
#X coords 0 0 100 100 85 60 0;
#X restore 129 825 pd extreme_buttons;
#X obj 552 501 send abs_hat0x;
#X obj 675 504 send abs_hat0y;
#X floatatom 528 696 5 0 0 0 - - - 0;
#X floatatom 646 699 5 0 0 0 - - - 0;
#X obj 489 673 receive abs_hat0x;
#X obj 638 674 receive abs_hat0y;
#X msg 505 729 send /abs_hat0x \$1;
#X msg 648 736 send /abs_hat0y \$1;
#X obj 304 250 hid 0;
#X obj 636 57 import mrpeach;
#X obj 811 59 import OSC;
#X obj 848 720 mrpeach/packOSC;
#X obj 852 780 mrpeach/udpsend;
#X msg 262 114 open 26;
#X connect 2 0 71 0;
#X connect 3 0 107 0;
#X connect 8 0 9 1;
#X connect 9 0 8 0;
#X connect 10 0 9 0;
#X connect 11 0 107 0;
#X connect 12 0 107 0;
#X connect 13 0 54 0;
#X connect 13 1 23 0;
#X connect 13 2 27 0;
#X connect 13 3 10 0;
#X connect 14 0 98 0;
#X connect 16 0 17 0;
#X connect 16 1 29 0;
#X connect 16 2 31 0;
#X connect 16 3 33 0;
#X connect 17 0 28 0;
#X connect 17 0 99 0;
#X connect 18 0 107 0;
#X connect 23 0 0 0;
#X connect 23 1 1 0;
#X connect 23 2 15 0;
#X connect 23 3 24 0;
#X connect 25 0 6 0;
#X connect 25 1 5 0;
#X connect 25 2 4 0;
#X connect 27 0 2 0;
#X connect 27 1 35 0;
#X connect 27 2 36 0;
#X connect 27 3 37 0;
#X connect 27 4 38 0;
#X connect 27 5 39 0;
#X connect 27 6 40 0;
#X connect 27 7 16 0;
#X connect 29 0 30 0;
#X connect 30 0 100 0;
#X connect 31 0 32 0;
#X connect 33 0 34 0;
#X connect 35 0 73 0;
#X connect 36 0 74 0;
#X connect 37 0 75 0;
#X connect 38 0 76 0;
#X connect 39 0 77 0;
#X connect 40 0 78 0;
#X connect 41 0 98 1;
#X connect 42 0 98 2;
#X connect 43 0 98 3;
#X connect 44 0 98 4;
#X connect 45 0 98 5;
#X connect 46 0 98 6;
#X connect 47 0 98 7;
#X connect 48 0 98 8;
#X connect 49 0 98 9;
#X connect 50 0 98 10;
#X connect 51 0 98 11;
#X connect 54 0 14 0;
#X connect 54 1 41 0;
#X connect 54 2 42 0;
#X connect 54 3 43 0;
#X connect 54 4 44 0;
#X connect 54 5 45 0;
#X connect 54 6 46 0;
#X connect 54 7 47 0;
#X connect 54 8 48 0;
#X connect 54 9 49 0;
#X connect 54 10 50 0;
#X connect 54 11 51 0;
#X connect 54 12 52 0;
#X connect 54 13 53 0;
#X connect 54 14 55 0;
#X connect 54 15 56 0;
#X connect 57 0 107 0;
#X connect 58 0 107 0;
#X connect 59 0 107 0;
#X connect 62 0 112 0;
#X connect 66 0 111 0;
#X connect 68 0 111 0;
#X connect 69 0 70 0;
#X connect 70 0 110 0;
#X connect 72 0 69 0;
#X connect 79 0 85 0;
#X connect 80 0 86 0;
#X connect 81 0 87 0;
#X connect 82 0 88 0;
#X connect 83 0 89 0;
#X connect 84 0 90 0;
#X connect 85 0 91 0;
#X connect 86 0 92 0;
#X connect 87 0 93 0;
#X connect 88 0 94 0;
#X connect 89 0 95 0;
#X connect 90 0 96 0;
#X connect 91 0 110 0;
#X connect 92 0 110 0;
#X connect 93 0 110 0;
#X connect 94 0 110 0;
#X connect 95 0 110 0;
#X connect 96 0 110 0;
#X connect 97 0 66 0;
#X connect 98 0 110 0;
#X connect 101 0 105 0;
#X connect 102 0 106 0;
#X connect 103 0 101 0;
#X connect 104 0 102 0;
#X connect 105 0 110 0;
#X connect 106 0 110 0;
#X connect 107 0 13 0;
#X connect 107 0 25 0;
#X connect 107 0 60 0;
#X connect 107 0 61 0;
#X connect 110 0 111 0;
#X connect 111 0 67 0;
#X connect 112 0 107 0;
